<svg width="176" height="146" viewBox="0 0 176 146" fill="none" xmlns="http://www.w3.org/2000/svg">
<path d="M166.037 91.3277C174.745 102.091 173.874 125.902 173.874 125.902V145.725H1.00002V5.12138C1.00002 5.12138 28.7227 -4.15196 41.5677 5.12138C52.2113 12.8054 55.8586 35.5472 55.8586 35.5472C55.8586 35.5472 92.6818 23.6127 110.256 35.5472C125.177 45.6798 131.462 76.5759 131.462 76.5759C131.462 76.5759 156.803 79.9154 166.037 91.3277Z" fill="white"/>
<path d="M173.867 125.441C173.867 125.441 174.416 102.781 165.561 92.2366C156.474 81.4157 132.945 77.0083 132.945 77.0083" stroke="black" stroke-width="2.38558" stroke-linecap="round"/>
<path d="M135.667 90.6501C135.667 90.6501 128.869 48.022 108.381 35.396C85.8733 21.5249 40.8486 40.1711 40.8486 40.1711" stroke="black" stroke-width="2.38558" stroke-linecap="round"/>
<path d="M55.8574 34.7141C55.8574 34.7141 52.9401 15.0915 44.2609 7.42813C31.6658 -3.69261 1.28546 5.38169 1.28546 5.38169" stroke="black" stroke-width="2.38558" stroke-linecap="round"/>
</svg>
