<svg width="176" height="146" viewBox="0 0 176 146" fill="none" xmlns="http://www.w3.org/2000/svg">
<path d="M9.86117 54.3976C1.15295 43.6345 2.02422 19.8229 2.02422 19.8229V0H174.898V140.604C174.898 140.604 147.175 149.877 134.33 140.604C123.687 132.92 120.039 110.178 120.039 110.178C120.039 110.178 83.2161 122.113 65.6418 110.178C50.7207 100.046 44.4359 69.1495 44.4359 69.1495C44.4359 69.1495 19.0947 65.81 9.86117 54.3976Z" fill="#F8FAFC"/>
<path d="M2.03058 20.2844C2.03058 20.2844 1.48227 42.9447 10.3369 53.4888C19.424 64.3097 42.9529 68.717 42.9529 68.717" stroke="black" stroke-width="2.38558" stroke-linecap="round"/>
<path d="M40.2306 55.0752C40.2306 55.0752 47.0289 97.7033 67.5166 110.329C90.0247 124.2 135.049 105.554 135.049 105.554" stroke="black" stroke-width="2.38558" stroke-linecap="round"/>
<path d="M120.041 111.011C120.041 111.011 122.958 130.634 131.637 138.297C144.232 149.418 174.612 140.344 174.612 140.344" stroke="black" stroke-width="2.38558" stroke-linecap="round"/>
</svg>
