<svg width="48" height="57" viewBox="0 0 48 57" fill="none" xmlns="http://www.w3.org/2000/svg">
<g filter="url(#filter0_d_2052_6)">
<path d="M31.4964 46.3583L31.5592 48.5565C31.5612 48.6504 31.5151 48.6976 31.4214 48.6976H26.2755C26.1711 48.6976 26.1253 48.6462 26.1378 48.5439L26.4071 46.4928C26.4151 46.4321 26.399 46.3702 26.362 46.3208C26.3252 46.2718 26.2706 46.2389 26.2099 46.2296C24.3392 45.9432 22.507 45.4916 20.7137 44.8749C20.6647 44.8582 20.611 44.861 20.5639 44.8824C20.5168 44.9041 20.4798 44.9428 20.4603 44.9907L19.6438 47.0731C19.6022 47.1778 19.5289 47.2081 19.4249 47.1642C17.698 46.4281 16.0567 45.5345 14.501 44.4828C14.4578 44.4536 14.4209 44.4161 14.3925 44.3721C14.3638 44.3286 14.3443 44.2795 14.335 44.2282C14.3259 44.1767 14.3269 44.124 14.338 44.0728C14.3493 44.022 14.3709 43.9736 14.4011 43.9308L15.5022 42.3786C15.5493 42.311 15.5686 42.2278 15.5563 42.146C15.544 42.0644 15.5011 41.9905 15.4362 41.9396C14.0912 40.8922 12.8692 39.7142 11.7702 38.4055C11.709 38.3333 11.6223 38.2878 11.5286 38.2789C11.435 38.2703 11.3419 38.2988 11.2696 38.3586L9.61171 39.6881C9.594 39.7023 9.57369 39.7129 9.55198 39.7194C9.53023 39.726 9.50753 39.7281 9.48514 39.7257C9.46275 39.7233 9.44112 39.7166 9.42149 39.7059C9.40188 39.6952 9.38467 39.6805 9.37084 39.6631C8.02155 38.0031 6.90479 36.1967 6.02054 34.2441C6.01044 34.2227 6.00484 34.1994 6.00411 34.1756C6.00337 34.1519 6.00752 34.1282 6.01629 34.1057C6.02507 34.0835 6.03827 34.0632 6.05514 34.0459C6.07201 34.0288 6.09216 34.0151 6.1144 34.0057L8.14145 33.1778C8.21693 33.1477 8.27756 33.0893 8.31033 33.0147C8.3431 32.9403 8.34537 32.8558 8.31665 32.7798C7.68682 31.0926 7.2103 29.3617 6.88706 27.5865C6.8516 27.3837 6.73169 27.2939 6.52731 27.3168L4.48774 27.5583C4.37513 27.5708 4.3084 27.5218 4.28754 27.4111C3.95177 25.5587 3.91007 23.7021 4.16242 21.8417C4.17699 21.7245 4.24375 21.6712 4.36261 21.6817L6.70876 21.8887C6.76969 21.8939 6.83022 21.8746 6.87711 21.8355C6.92401 21.796 6.95346 21.7397 6.959 21.6786C7.15714 19.6108 7.70351 17.6416 8.59818 15.7704C8.6378 15.6869 8.61484 15.6253 8.52935 15.5856L6.38968 14.6227C6.35409 14.6071 6.32199 14.584 6.2953 14.5556C6.26859 14.5272 6.24781 14.4935 6.23414 14.4567C6.22044 14.4202 6.21417 14.381 6.21563 14.3417C6.21709 14.3022 6.22627 14.2635 6.24265 14.2276C6.98298 12.6387 7.87036 11.1398 8.90474 9.73066C8.9372 9.6868 8.98569 9.65757 9.03961 9.64922C9.09352 9.64113 9.1485 9.65444 9.19251 9.6868L11.1132 11.1231C11.2071 11.1941 11.2915 11.1837 11.3666 11.0918C12.6888 9.51115 14.1558 8.08134 15.768 6.80188C15.7972 6.77813 15.816 6.7442 15.8206 6.70713C15.8252 6.67033 15.8153 6.63326 15.793 6.60429L14.3102 4.64751C14.2373 4.5512 14.2509 4.46977 14.3508 4.40295C15.9026 3.35344 17.5364 2.45217 19.2527 1.69968C19.2766 1.6895 19.3024 1.68403 19.3282 1.6835C19.3543 1.68298 19.3798 1.68769 19.4035 1.69708C19.4274 1.70621 19.449 1.72031 19.4673 1.73779C19.4852 1.75554 19.4995 1.77669 19.5091 1.79991L20.4884 4.08922C20.5067 4.13254 20.5408 4.167 20.5834 4.18501C20.6261 4.20328 20.6741 4.2038 20.7168 4.18631C22.5122 3.45262 24.3757 2.99273 26.3068 2.80662C26.5861 2.77948 26.7156 2.62575 26.6948 2.34568L26.5289 0.219515C26.5205 0.100227 26.5757 0.0407207 26.6948 0.0407207L31.0835 6.81343e-06C31.1196 -0.000259856 31.1556 0.00730571 31.1886 0.0219287C31.2217 0.0365392 31.2513 0.0579479 31.2756 0.0850906C31.2998 0.11197 31.3181 0.14382 31.3292 0.178275C31.3405 0.212716 31.3441 0.249261 31.3402 0.28528L31.1085 2.48689C31.1022 2.5524 31.1213 2.61765 31.1616 2.66907C31.2016 2.72075 31.2602 2.75416 31.3246 2.76278L32.4663 2.92276C32.5683 2.93739 32.6196 2.99689 32.6196 3.10131L32.6259 6.32188C32.628 6.43281 32.5736 6.48083 32.4631 6.46622C26.8198 5.73879 21.8272 6.63874 17.4354 10.082C7.35629 17.9845 8.34479 33.1465 19.0181 39.9014C22.9911 42.4162 27.4631 43.2337 32.4351 42.3536C32.5516 42.3327 32.6102 42.3818 32.6102 42.5011V45.9787C32.6102 46.0322 32.5892 46.0836 32.5516 46.1218C32.5142 46.1598 32.4634 46.1817 32.41 46.1825L31.6591 46.192C31.5487 46.192 31.4944 46.2473 31.4964 46.3583Z" fill="url(#paint0_linear_2052_6)"/>
</g>
<g filter="url(#filter1_d_2052_6)">
<path d="M43.0705 24.385C43.0705 28.1235 41.5893 31.7087 38.9524 34.3522C36.3153 36.9957 32.7387 38.4808 29.0095 38.4808C25.2802 38.4808 21.7036 36.9957 19.0666 34.3522C16.4297 31.7087 14.9482 28.1235 14.9482 24.385C14.9482 20.6464 16.4297 17.0611 19.0666 14.4177C21.7036 11.7742 25.2802 10.2891 29.0095 10.2891C32.7387 10.2891 36.3153 11.7742 38.9524 14.4177C41.5893 17.0611 43.0705 20.6464 43.0705 24.385ZM35.438 24.366C35.438 22.6554 34.7599 21.0147 33.5531 19.8049C32.3466 18.5952 30.7096 17.9155 29.0032 17.9155C27.2965 17.9155 25.6598 18.5952 24.4531 19.8049C23.2465 21.0147 22.5686 22.6554 22.5686 24.366C22.5686 26.0769 23.2465 27.7176 24.4531 28.9274C25.6598 30.1372 27.2965 30.8166 29.0032 30.8166C30.7096 30.8166 32.3466 30.1372 33.5531 28.9274C34.7599 27.7176 35.438 26.0769 35.438 24.366Z" fill="url(#paint1_linear_2052_6)"/>
</g>
<defs>
<filter id="filter0_d_2052_6" x="0" y="0" width="36.626" height="56.6975" filterUnits="userSpaceOnUse" color-interpolation-filters="sRGB">
<feFlood flood-opacity="0" result="BackgroundImageFix"/>
<feColorMatrix in="SourceAlpha" type="matrix" values="0 0 0 0 0 0 0 0 0 0 0 0 0 0 0 0 0 0 127 0" result="hardAlpha"/>
<feOffset dy="4"/>
<feGaussianBlur stdDeviation="2"/>
<feComposite in2="hardAlpha" operator="out"/>
<feColorMatrix type="matrix" values="0 0 0 0 0 0 0 0 0 0 0 0 0 0 0 0 0 0 0.25 0"/>
<feBlend mode="normal" in2="BackgroundImageFix" result="effect1_dropShadow_2052_6"/>
<feBlend mode="normal" in="SourceGraphic" in2="effect1_dropShadow_2052_6" result="shape"/>
</filter>
<filter id="filter1_d_2052_6" x="10.9482" y="10.2891" width="36.1222" height="36.1918" filterUnits="userSpaceOnUse" color-interpolation-filters="sRGB">
<feFlood flood-opacity="0" result="BackgroundImageFix"/>
<feColorMatrix in="SourceAlpha" type="matrix" values="0 0 0 0 0 0 0 0 0 0 0 0 0 0 0 0 0 0 127 0" result="hardAlpha"/>
<feOffset dy="4"/>
<feGaussianBlur stdDeviation="2"/>
<feComposite in2="hardAlpha" operator="out"/>
<feColorMatrix type="matrix" values="0 0 0 0 0 0 0 0 0 0 0 0 0 0 0 0 0 0 0.25 0"/>
<feBlend mode="normal" in2="BackgroundImageFix" result="effect1_dropShadow_2052_6"/>
<feBlend mode="normal" in="SourceGraphic" in2="effect1_dropShadow_2052_6" result="shape"/>
</filter>
<linearGradient id="paint0_linear_2052_6" x1="18.313" y1="-5.70633e-06" x2="18.313" y2="48.6976" gradientUnits="userSpaceOnUse">
<stop stop-color="#0856BA"/>
<stop offset="1" stop-color="#0B3263"/>
</linearGradient>
<linearGradient id="paint1_linear_2052_6" x1="29.0094" y1="10.2891" x2="29.0094" y2="38.4808" gradientUnits="userSpaceOnUse">
<stop stop-color="#0856BA"/>
<stop offset="1" stop-color="#0B3263"/>
</linearGradient>
</defs>
</svg>
