<svg width="127" height="41" viewBox="0 0 127 41" fill="none" xmlns="http://www.w3.org/2000/svg">
<g clip-path="url(#clip0_1_452)">
<path d="M24.9575 38.4179L25.0077 40.1737C25.0093 40.2487 24.9725 40.2864 24.8976 40.2864H20.7874C20.704 40.2864 20.6674 40.2454 20.6774 40.1637L20.8925 38.5254C20.8989 38.4769 20.886 38.4274 20.8565 38.388C20.8271 38.3488 20.7835 38.3226 20.735 38.3151C19.2408 38.0864 17.7773 37.7257 16.3449 37.2331C16.3058 37.2197 16.2629 37.222 16.2253 37.2391C16.1877 37.2564 16.1581 37.2873 16.1425 37.3256L15.4904 38.9889C15.4571 39.0725 15.3986 39.0967 15.3155 39.0616C13.9362 38.4737 12.6252 37.7599 11.3826 36.9199C11.3481 36.8966 11.3186 36.8666 11.2959 36.8315C11.273 36.7967 11.2574 36.7575 11.25 36.7165C11.2427 36.6754 11.2435 36.6333 11.2524 36.5924C11.2614 36.5518 11.2787 36.5132 11.3028 36.479L12.1823 35.2392C12.2199 35.1852 12.2353 35.1187 12.2255 35.0534C12.2157 34.9882 12.1814 34.9292 12.1296 34.8885C11.0553 34.0519 10.0792 33.111 9.20135 32.0657C9.15252 32.008 9.08322 31.9717 9.00842 31.9646C8.93361 31.9577 8.8593 31.9805 8.80155 32.0282L7.4773 33.0902C7.46315 33.1015 7.44694 33.11 7.42959 33.1152C7.41222 33.1204 7.39409 33.1221 7.3762 33.1202C7.35833 33.1183 7.34104 33.1129 7.32537 33.1044C7.30971 33.0958 7.29596 33.0841 7.28491 33.0702C6.20718 31.7443 5.31518 30.3014 4.60889 28.7418C4.60082 28.7247 4.59634 28.7061 4.59576 28.6871C4.59517 28.6682 4.59848 28.6492 4.60549 28.6313C4.6125 28.6135 4.62304 28.5973 4.63652 28.5835C4.64999 28.5698 4.66609 28.5589 4.68385 28.5514L6.30294 27.8901C6.36323 27.8661 6.41166 27.8194 6.43783 27.7598C6.46402 27.7004 6.46582 27.6329 6.44288 27.5722C5.93981 26.2246 5.55919 24.842 5.30101 23.4241C5.27268 23.2621 5.17691 23.1904 5.01366 23.2087L3.38457 23.4016C3.29462 23.4116 3.24132 23.3724 3.22466 23.284C2.95647 21.8044 2.92316 20.3215 3.12472 18.8355C3.13636 18.7419 3.18968 18.6993 3.28462 18.7077L5.15859 18.873C5.20726 18.8772 5.25561 18.8618 5.29306 18.8305C5.33052 18.799 5.35404 18.754 5.35847 18.7052C5.51674 17.0536 5.95315 15.4807 6.66775 13.9861C6.6994 13.9194 6.68107 13.8702 6.61278 13.8385L4.90373 13.0694C4.8753 13.0569 4.84967 13.0385 4.82835 13.0158C4.80702 12.9931 4.79042 12.9662 4.7795 12.9368C4.76856 12.9076 4.76354 12.8763 4.76471 12.8449C4.76587 12.8134 4.77321 12.7825 4.78629 12.7538C5.37762 11.4847 6.08642 10.2875 6.91262 9.16193C6.93854 9.1269 6.97728 9.10355 7.02035 9.09688C7.06341 9.09042 7.10732 9.10105 7.14248 9.1269L8.67663 10.2742C8.75159 10.3309 8.81905 10.3225 8.87903 10.2491C9.93512 8.9866 11.1069 7.84455 12.3946 6.82259C12.4179 6.80362 12.4329 6.77652 12.4366 6.74691C12.4403 6.71752 12.4324 6.68791 12.4146 6.66477L11.2302 5.10181C11.172 5.02488 11.1828 4.95984 11.2626 4.90647C12.5021 4.06818 13.8071 3.3483 15.178 2.74725C15.1971 2.73912 15.2177 2.73475 15.2383 2.73433C15.2591 2.73391 15.2795 2.73767 15.2984 2.74517C15.3175 2.75247 15.3348 2.76373 15.3494 2.77769C15.3637 2.79187 15.3751 2.80876 15.3828 2.82731L16.165 4.65588C16.1796 4.69048 16.2068 4.718 16.2409 4.73239C16.275 4.74698 16.3133 4.7474 16.3474 4.73343C17.7815 4.1474 19.2699 3.78006 20.8124 3.63141C21.0355 3.60973 21.1389 3.48694 21.1223 3.26324L20.9898 1.56498C20.9831 1.4697 21.0272 1.42217 21.1223 1.42217L24.6277 1.38965C24.6566 1.38944 24.6853 1.39548 24.7117 1.40716C24.7381 1.41883 24.7618 1.43593 24.7812 1.45761C24.8005 1.47908 24.8151 1.50452 24.824 1.53204C24.833 1.55955 24.8359 1.58874 24.8328 1.61751L24.6477 3.37603C24.6427 3.42835 24.6579 3.48047 24.6901 3.52154C24.7221 3.56282 24.7689 3.58951 24.8203 3.59639L25.7322 3.72418C25.8137 3.73586 25.8547 3.78339 25.8547 3.86679L25.8597 6.4392C25.8614 6.5278 25.8179 6.56616 25.7297 6.55449C21.2221 5.97346 17.2343 6.69229 13.7264 9.44254C5.67581 15.7546 6.46536 27.8651 14.9906 33.2605C18.164 35.2692 21.736 35.9222 25.7073 35.2192C25.8004 35.2025 25.8472 35.2417 25.8472 35.337V38.1147C25.8472 38.1575 25.8304 38.1985 25.8004 38.229C25.7705 38.2594 25.7299 38.2769 25.6873 38.2775L25.0875 38.2851C24.9993 38.2851 24.9559 38.3293 24.9575 38.4179Z" fill="white"/>
<path d="M24.9575 38.4179L25.0077 40.1737C25.0093 40.2487 24.9725 40.2864 24.8976 40.2864H20.7874C20.704 40.2864 20.6674 40.2454 20.6774 40.1637L20.8925 38.5254C20.8989 38.4769 20.886 38.4274 20.8565 38.388C20.8271 38.3488 20.7835 38.3226 20.735 38.3151C19.2408 38.0864 17.7773 37.7257 16.3449 37.2331C16.3058 37.2197 16.2629 37.222 16.2253 37.2391C16.1877 37.2564 16.1581 37.2873 16.1425 37.3256L15.4904 38.9889C15.4571 39.0725 15.3986 39.0967 15.3155 39.0616C13.9362 38.4737 12.6252 37.7599 11.3826 36.9199C11.3481 36.8966 11.3186 36.8666 11.2959 36.8315C11.273 36.7967 11.2574 36.7575 11.25 36.7165C11.2427 36.6754 11.2435 36.6333 11.2524 36.5924C11.2614 36.5518 11.2787 36.5132 11.3028 36.479L12.1823 35.2392C12.2199 35.1852 12.2353 35.1187 12.2255 35.0534C12.2157 34.9882 12.1814 34.9292 12.1296 34.8885C11.0553 34.0519 10.0792 33.111 9.20135 32.0657C9.15252 32.008 9.08322 31.9717 9.00842 31.9646C8.93361 31.9577 8.8593 31.9805 8.80155 32.0282L7.4773 33.0902C7.46315 33.1015 7.44694 33.11 7.42959 33.1152C7.41222 33.1204 7.39409 33.1221 7.3762 33.1202C7.35833 33.1183 7.34104 33.1129 7.32537 33.1044C7.30971 33.0958 7.29596 33.0841 7.28491 33.0702C6.20718 31.7443 5.31518 30.3014 4.60889 28.7418C4.60082 28.7247 4.59634 28.7061 4.59576 28.6871C4.59517 28.6682 4.59848 28.6492 4.60549 28.6313C4.6125 28.6135 4.62304 28.5973 4.63652 28.5835C4.64999 28.5698 4.66609 28.5589 4.68385 28.5514L6.30294 27.8901C6.36323 27.8661 6.41166 27.8194 6.43783 27.7598C6.46402 27.7004 6.46582 27.6329 6.44288 27.5722C5.93981 26.2246 5.55919 24.842 5.30101 23.4241C5.27268 23.2621 5.17691 23.1904 5.01366 23.2087L3.38457 23.4016C3.29462 23.4116 3.24132 23.3724 3.22466 23.284C2.95647 21.8044 2.92316 20.3215 3.12472 18.8355C3.13636 18.7419 3.18968 18.6993 3.28462 18.7077L5.15859 18.873C5.20726 18.8772 5.25561 18.8618 5.29306 18.8305C5.33052 18.799 5.35404 18.754 5.35847 18.7052C5.51674 17.0536 5.95315 15.4807 6.66775 13.9861C6.6994 13.9194 6.68107 13.8702 6.61278 13.8385L4.90373 13.0694C4.8753 13.0569 4.84967 13.0385 4.82835 13.0158C4.80702 12.9931 4.79042 12.9662 4.7795 12.9368C4.76856 12.9076 4.76354 12.8763 4.76471 12.8449C4.76587 12.8134 4.77321 12.7825 4.78629 12.7538C5.37762 11.4847 6.08642 10.2875 6.91262 9.16193C6.93854 9.1269 6.97728 9.10355 7.02035 9.09688C7.06341 9.09042 7.10732 9.10105 7.14248 9.1269L8.67663 10.2742C8.75159 10.3309 8.81905 10.3225 8.87903 10.2491C9.93512 8.9866 11.1069 7.84455 12.3946 6.82259C12.4179 6.80362 12.4329 6.77652 12.4366 6.74691C12.4403 6.71752 12.4324 6.68791 12.4146 6.66477L11.2302 5.10181C11.172 5.02488 11.1828 4.95984 11.2626 4.90647C12.5021 4.06818 13.8071 3.3483 15.178 2.74725C15.1971 2.73912 15.2177 2.73475 15.2383 2.73433C15.2591 2.73391 15.2795 2.73767 15.2984 2.74517C15.3175 2.75247 15.3348 2.76373 15.3494 2.77769C15.3637 2.79187 15.3751 2.80876 15.3828 2.82731L16.165 4.65588C16.1796 4.69048 16.2068 4.718 16.2409 4.73239C16.275 4.74698 16.3133 4.7474 16.3474 4.73343C17.7815 4.1474 19.2699 3.78006 20.8124 3.63141C21.0355 3.60973 21.1389 3.48694 21.1223 3.26324L20.9898 1.56498C20.9831 1.4697 21.0272 1.42217 21.1223 1.42217L24.6277 1.38965C24.6566 1.38944 24.6853 1.39548 24.7117 1.40716C24.7381 1.41883 24.7618 1.43593 24.7812 1.45761C24.8005 1.47908 24.8151 1.50452 24.824 1.53204C24.833 1.55955 24.8359 1.58874 24.8328 1.61751L24.6477 3.37603C24.6427 3.42835 24.6579 3.48047 24.6901 3.52154C24.7221 3.56282 24.7689 3.58951 24.8203 3.59639L25.7322 3.72418C25.8137 3.73586 25.8547 3.78339 25.8547 3.86679L25.8597 6.4392C25.8614 6.5278 25.8179 6.56616 25.7297 6.55449C21.2221 5.97346 17.2343 6.69229 13.7264 9.44254C5.67581 15.7546 6.46536 27.8651 14.9906 33.2605C18.164 35.2692 21.736 35.9222 25.7073 35.2192C25.8004 35.2025 25.8472 35.2417 25.8472 35.337V38.1147C25.8472 38.1575 25.8304 38.1985 25.8004 38.229C25.7705 38.2594 25.7299 38.2769 25.6873 38.2775L25.0875 38.2851C24.9993 38.2851 24.9559 38.3293 24.9575 38.4179Z" fill="url(#paint0_linear_1_452)"/>
<path d="M34.2022 20.867C34.2022 23.8531 33.0191 26.7167 30.9129 28.8281C28.8066 30.9396 25.9498 32.1259 22.9711 32.1259C19.9924 32.1259 17.1356 30.9396 15.0293 28.8281C12.9231 26.7167 11.7398 23.8531 11.7398 20.867C11.7398 17.8808 12.9231 15.017 15.0293 12.9057C17.1356 10.7942 19.9924 9.60791 22.9711 9.60791C25.9498 9.60791 28.8066 10.7942 30.9129 12.9057C33.0191 15.017 34.2022 17.8808 34.2022 20.867ZM28.1058 20.8517C28.1058 19.4854 27.5642 18.175 26.6003 17.2087C25.6366 16.2424 24.3291 15.6995 22.9661 15.6995C21.6029 15.6995 20.2956 16.2424 19.3317 17.2087C18.368 18.175 17.8265 19.4854 17.8265 20.8517C17.8265 22.2183 18.368 23.5288 19.3317 24.4951C20.2956 25.4614 21.6029 26.0042 22.9661 26.0042C24.3291 26.0042 25.6366 25.4614 26.6003 24.4951C27.5642 23.5288 28.1058 22.2183 28.1058 20.8517Z" fill="white"/>
<path d="M34.2022 20.867C34.2022 23.8531 33.0191 26.7166 30.9129 28.8281C28.8066 30.9396 25.9498 32.1259 22.9711 32.1259C19.9924 32.1259 17.1356 30.9396 15.0293 28.8281C12.9231 26.7166 11.7398 23.8531 11.7398 20.867C11.7398 17.8808 12.9231 15.0171 15.0293 12.9057C17.1356 10.7942 19.9924 9.60791 22.9711 9.60791C25.9498 9.60791 28.8066 10.7942 30.9129 12.9057C33.0191 15.0171 34.2022 17.8808 34.2022 20.867ZM28.1058 20.8517C28.1058 19.4854 27.5642 18.175 26.6003 17.2087C25.6366 16.2424 24.3291 15.6995 22.9661 15.6995C21.6029 15.6995 20.2956 16.2424 19.3317 17.2087C18.368 18.175 17.8265 19.4854 17.8265 20.8517C17.8265 22.2183 18.368 23.5288 19.3317 24.4951C20.2956 25.4614 21.6029 26.0042 22.9661 26.0042C24.3291 26.0042 25.6366 25.4614 26.6003 24.4951C27.5642 23.5288 28.1058 22.2183 28.1058 20.8517Z" fill="url(#paint1_linear_1_452)"/>
<path d="M63.4511 27.64V37.1556C63.4511 37.2392 63.4095 37.2809 63.3261 37.2809H58.5864C58.4564 37.2809 58.3915 37.2159 58.3915 37.0856L58.389 12.1705C58.389 12.0869 58.4315 12.0452 58.5163 12.0452H63.3386C63.4287 12.0452 63.4719 12.0911 63.4686 12.183L63.4062 13.3728C63.4047 13.3937 63.4099 13.4145 63.421 13.4322C63.432 13.45 63.4484 13.4639 63.4675 13.4719C63.4869 13.48 63.5083 13.4817 63.5287 13.4769C63.5489 13.4723 63.5674 13.4612 63.5811 13.4454C64.7438 12.1881 66.1522 11.5643 67.8063 11.5743C72.6486 11.6043 76.534 15.7999 76.4714 20.5113C76.4115 25.1979 73.0258 28.7871 68.341 29.2881C66.4446 29.4911 64.9678 28.8298 63.6485 27.5573C63.517 27.4305 63.4511 27.458 63.4511 27.64ZM67.5545 24.4512C68.5471 24.4616 69.5035 24.0494 70.2133 23.3052C70.9231 22.5611 71.328 21.5458 71.339 20.483C71.3446 19.9568 71.2531 19.4348 71.0701 18.9465C70.8871 18.4582 70.6161 18.0136 70.2724 17.6379C69.9288 17.262 69.5193 16.9626 69.0672 16.7564C68.6153 16.5503 68.1297 16.4414 67.6383 16.4364C66.6457 16.426 65.6892 16.8382 64.9794 17.5822C64.2697 18.3265 63.8648 19.3416 63.8535 20.4044C63.8481 20.9308 63.9394 21.4528 64.1224 21.9411C64.3054 22.4291 64.5766 22.8738 64.9202 23.2497C65.2639 23.6254 65.6734 23.925 66.1253 24.1311C66.5774 24.3373 67.063 24.4459 67.5545 24.4512Z" fill="white"/>
<path d="M63.4511 27.64V37.1556C63.4511 37.2392 63.4095 37.2809 63.3261 37.2809H58.5864C58.4564 37.2809 58.3915 37.2159 58.3915 37.0856L58.389 12.1705C58.389 12.0869 58.4315 12.0452 58.5163 12.0452H63.3386C63.4287 12.0452 63.4719 12.0911 63.4686 12.183L63.4062 13.3728C63.4047 13.3937 63.4099 13.4145 63.421 13.4322C63.432 13.45 63.4484 13.4639 63.4675 13.4719C63.4869 13.48 63.5083 13.4817 63.5287 13.4769C63.5489 13.4723 63.5674 13.4612 63.5811 13.4454C64.7438 12.1881 66.1522 11.5643 67.8063 11.5743C72.6486 11.6043 76.534 15.7999 76.4714 20.5113C76.4115 25.1979 73.0258 28.7871 68.341 29.2881C66.4446 29.4911 64.9678 28.8298 63.6485 27.5573C63.517 27.4305 63.4511 27.458 63.4511 27.64ZM67.5545 24.4512C68.5471 24.4616 69.5035 24.0494 70.2133 23.3052C70.9231 22.5611 71.328 21.5458 71.339 20.483C71.3446 19.9568 71.2531 19.4348 71.0701 18.9465C70.8871 18.4582 70.6161 18.0136 70.2724 17.6379C69.9288 17.262 69.5193 16.9626 69.0672 16.7564C68.6153 16.5503 68.1297 16.4414 67.6383 16.4364C66.6457 16.426 65.6892 16.8382 64.9794 17.5822C64.2697 18.3265 63.8648 19.3416 63.8535 20.4044C63.8481 20.9308 63.9394 21.4528 64.1224 21.9411C64.3054 22.4291 64.5766 22.8738 64.9202 23.2497C65.2639 23.6254 65.6734 23.925 66.1253 24.1311C66.5774 24.3373 67.063 24.4459 67.5545 24.4512Z" fill="url(#paint2_linear_1_452)"/>
<path d="M91.6979 27.5897C91.6942 27.5697 91.6848 27.5511 91.6711 27.5363C91.6574 27.5213 91.6397 27.5107 91.62 27.5055C91.6004 27.5002 91.5798 27.5007 91.5603 27.5067C91.5409 27.5128 91.5237 27.5242 91.5106 27.5396C90.4063 28.9048 89.052 29.3657 87.2729 29.2629C84.0521 29.0776 81.1714 27.0512 79.7645 24.1631C77.1635 18.8255 80.4768 12.1954 86.5259 11.5842C88.6246 11.3713 90.4662 12.0776 92.0028 13.4628C92.0172 13.4755 92.0351 13.4834 92.0542 13.4855C92.0731 13.4876 92.0925 13.4836 92.1091 13.4745C92.1259 13.4651 92.1392 13.4507 92.1476 13.4334C92.1559 13.4161 92.1584 13.3965 92.1553 13.3775L91.9377 12.2079C91.9178 12.0927 91.9662 12.0351 92.0827 12.0351L96.865 12.0501C96.9518 12.0501 96.995 12.0935 96.995 12.1802V28.7019C96.995 28.7517 96.9753 28.7995 96.9401 28.8347C96.905 28.8699 96.8573 28.8898 96.8076 28.8898H92.0927C91.9829 28.8898 91.9186 28.8362 91.9003 28.7294L91.6979 27.5897ZM87.8616 24.4554C88.3543 24.445 88.8399 24.331 89.291 24.1196C89.742 23.9084 90.1494 23.604 90.4901 23.2239C90.8307 22.8439 91.0978 22.3954 91.2762 21.9045C91.4546 21.4135 91.5407 20.8894 91.5297 20.3624C91.5074 19.2977 91.0909 18.2849 90.3715 17.5469C89.652 16.8089 88.6889 16.4059 87.6938 16.4267C87.2011 16.4371 86.7153 16.5512 86.2642 16.7626C85.8132 16.9738 85.4058 17.2781 85.0651 17.6582C84.7245 18.0382 84.4574 18.4867 84.279 18.9777C84.1006 19.4686 84.0145 19.9927 84.0255 20.52C84.0477 21.5845 84.4645 22.5973 85.1839 23.3353C85.9032 24.0733 86.8663 24.4763 87.8616 24.4554Z" fill="white"/>
<path d="M91.6979 27.5897C91.6942 27.5697 91.6848 27.5511 91.6711 27.5363C91.6574 27.5213 91.6397 27.5107 91.62 27.5055C91.6004 27.5002 91.5798 27.5007 91.5603 27.5067C91.5409 27.5128 91.5237 27.5242 91.5106 27.5396C90.4063 28.9048 89.052 29.3657 87.2729 29.2629C84.0521 29.0776 81.1714 27.0512 79.7645 24.1631C77.1635 18.8255 80.4768 12.1954 86.5259 11.5842C88.6246 11.3713 90.4662 12.0776 92.0028 13.4628C92.0172 13.4755 92.0351 13.4834 92.0542 13.4855C92.0731 13.4876 92.0925 13.4836 92.1091 13.4745C92.1259 13.4651 92.1392 13.4507 92.1476 13.4334C92.1559 13.4161 92.1584 13.3965 92.1553 13.3775L91.9377 12.2079C91.9178 12.0927 91.9662 12.0351 92.0827 12.0351L96.865 12.0501C96.9518 12.0501 96.995 12.0935 96.995 12.1802V28.7019C96.995 28.7517 96.9753 28.7995 96.9401 28.8347C96.905 28.8699 96.8573 28.8898 96.8076 28.8898H92.0927C91.9829 28.8898 91.9186 28.8362 91.9003 28.7294L91.6979 27.5897ZM87.8616 24.4554C88.3543 24.445 88.8399 24.331 89.291 24.1196C89.742 23.9084 90.1494 23.604 90.4901 23.2239C90.8307 22.8439 91.0978 22.3954 91.2762 21.9045C91.4546 21.4135 91.5407 20.8894 91.5297 20.3624C91.5074 19.2977 91.0909 18.2849 90.3715 17.5469C89.652 16.8089 88.6889 16.4059 87.6938 16.4267C87.2011 16.4371 86.7153 16.5512 86.2642 16.7626C85.8132 16.9738 85.4058 17.2781 85.0651 17.6582C84.7245 18.0382 84.4574 18.4867 84.279 18.9777C84.1006 19.4686 84.0145 19.9927 84.0255 20.52C84.0477 21.5845 84.4645 22.5973 85.1839 23.3353C85.9032 24.0733 86.8663 24.4763 87.8616 24.4554Z" fill="url(#paint3_linear_1_452)"/>
<path d="M42.0879 27.577V37.1551C42.0879 37.2387 42.0463 37.2804 41.9631 37.2804H37.1533C37.0699 37.2804 37.0283 37.2387 37.0283 37.1551V12.1073C37.0283 12.0869 37.0364 12.0671 37.051 12.0525C37.0656 12.0379 37.0853 12.0297 37.1057 12.0297L41.8831 12.0523C41.9124 12.0523 41.9413 12.0581 41.9681 12.0698C41.9949 12.0812 42.0193 12.0981 42.0394 12.1194C42.0598 12.1407 42.0756 12.1659 42.0862 12.1936C42.0966 12.2211 42.1014 12.2507 42.1006 12.2801L42.053 13.4074C42.0521 13.4257 42.0569 13.4436 42.0667 13.4591C42.0765 13.4745 42.0908 13.4866 42.1079 13.4937C42.1249 13.5006 42.1438 13.5024 42.1621 13.4987C42.1804 13.4949 42.1973 13.4858 42.2104 13.4724C43.5414 12.0514 45.1654 11.4304 47.0828 11.609C54.0713 12.2651 57.5694 20.3155 53.2469 25.9438C51.6659 28.0027 49.4665 29.1325 46.6479 29.3328C44.7415 29.4681 43.5796 28.5965 42.2079 27.5193C42.128 27.4559 42.0879 27.4751 42.0879 27.577ZM46.3853 24.4571C47.3777 24.4311 48.3183 23.9837 49.0004 23.2136C49.6826 22.4432 50.05 21.4134 50.0224 20.3501C50.0087 19.8237 49.8982 19.305 49.6973 18.8234C49.4966 18.342 49.2095 17.9074 48.8524 17.5442C48.4953 17.181 48.075 16.8967 47.6158 16.7072C47.1566 16.5177 46.6673 16.4265 46.1759 16.4395C45.1837 16.4655 44.243 16.9129 43.5609 17.683C42.8788 18.4534 42.5113 19.4833 42.539 20.5465C42.5527 21.0729 42.6631 21.5918 42.8638 22.0732C43.0647 22.5546 43.3517 22.9892 43.709 23.3524C44.0661 23.7156 44.4864 23.9999 44.9455 24.1895C45.4047 24.3792 45.8941 24.4701 46.3853 24.4571Z" fill="white"/>
<path d="M42.0879 27.577V37.1551C42.0879 37.2387 42.0463 37.2804 41.9631 37.2804H37.1533C37.0699 37.2804 37.0283 37.2387 37.0283 37.1551V12.1073C37.0283 12.0869 37.0364 12.0671 37.051 12.0525C37.0656 12.0379 37.0853 12.0297 37.1057 12.0297L41.8831 12.0523C41.9124 12.0523 41.9413 12.0581 41.9681 12.0698C41.9949 12.0812 42.0193 12.0981 42.0394 12.1194C42.0598 12.1407 42.0756 12.1659 42.0862 12.1936C42.0966 12.2211 42.1014 12.2507 42.1006 12.2801L42.053 13.4074C42.0521 13.4257 42.0569 13.4436 42.0667 13.4591C42.0765 13.4745 42.0908 13.4866 42.1079 13.4937C42.1249 13.5006 42.1438 13.5024 42.1621 13.4987C42.1804 13.4949 42.1973 13.4858 42.2104 13.4724C43.5414 12.0514 45.1654 11.4304 47.0828 11.609C54.0713 12.2651 57.5694 20.3155 53.2469 25.9438C51.6659 28.0027 49.4665 29.1325 46.6479 29.3328C44.7415 29.4681 43.5796 28.5965 42.2079 27.5193C42.128 27.4559 42.0879 27.4751 42.0879 27.577ZM46.3853 24.4571C47.3777 24.4311 48.3183 23.9837 49.0004 23.2136C49.6826 22.4432 50.05 21.4134 50.0224 20.3501C50.0087 19.8237 49.8982 19.305 49.6973 18.8234C49.4966 18.342 49.2095 17.9074 48.8524 17.5442C48.4953 17.181 48.075 16.8967 47.6158 16.7072C47.1566 16.5177 46.6673 16.4265 46.1759 16.4395C45.1837 16.4655 44.243 16.9129 43.5609 17.683C42.8788 18.4534 42.5113 19.4833 42.539 20.5465C42.5527 21.0729 42.6631 21.5918 42.8638 22.0732C43.0647 22.5546 43.3517 22.9892 43.709 23.3524C44.0661 23.7156 44.4864 23.9999 44.9455 24.1895C45.4047 24.3792 45.8941 24.4701 46.3853 24.4571Z" fill="url(#paint4_linear_1_452)"/>
</g>
<defs>
<linearGradient id="paint0_linear_1_452" x1="14.4274" y1="1.38964" x2="14.4274" y2="40.2864" gradientUnits="userSpaceOnUse">
<stop stop-color="#0856BA"/>
<stop offset="1" stop-color="#0B3263"/>
</linearGradient>
<linearGradient id="paint1_linear_1_452" x1="22.971" y1="9.60791" x2="22.971" y2="32.1259" gradientUnits="userSpaceOnUse">
<stop stop-color="#0856BA"/>
<stop offset="1" stop-color="#0B3263"/>
</linearGradient>
<linearGradient id="paint2_linear_1_452" x1="67.4306" y1="11.5742" x2="67.4306" y2="37.2809" gradientUnits="userSpaceOnUse">
<stop stop-color="#0856BA"/>
<stop offset="1" stop-color="#0B3263"/>
</linearGradient>
<linearGradient id="paint3_linear_1_452" x1="87.9322" y1="11.5468" x2="87.9322" y2="29.2767" gradientUnits="userSpaceOnUse">
<stop stop-color="#0856BA"/>
<stop offset="1" stop-color="#0B3263"/>
</linearGradient>
<linearGradient id="paint4_linear_1_452" x1="46.0854" y1="11.5791" x2="46.0854" y2="37.2804" gradientUnits="userSpaceOnUse">
<stop stop-color="#0856BA"/>
<stop offset="1" stop-color="#0B3263"/>
</linearGradient>
<clipPath id="clip0_1_452">
<rect width="127" height="40" fill="white" transform="translate(-0.00500488 0.389648)"/>
</clipPath>
</defs>
</svg>
